HIERARCHY
ROOT hip
{
	OFFSET 0.000000 0.000000 0.000000 
	CHANNELS 6 Xposition Yposition Zposition Xrotation Zrotation Yrotation
	JOINT abdomen
	{
		OFFSET 0.000000 3.402643 0.000000 
		CHANNELS 3 Xrotation Zrotation Yrotation
		JOINT chest
		{
			OFFSET 0.000000 8.438565 -0.680529 
			CHANNELS 3 Xrotation Zrotation Yrotation
			JOINT neck
			{
				OFFSET 0.000000 10.207942 -0.272212 
				CHANNELS 3 Xrotation Zrotation Yrotation
				JOINT head
				{
					OFFSET 0.000000 3.130431 0.000000 
					CHANNELS 3 Xrotation Zrotation Yrotation
					End Site
					{
						OFFSET 0.000000 3.130435 0.000000 
					}
				}
			}
			JOINT lCollar
			{
				OFFSET 3.470700 6.669187 -0.816635 
				CHANNELS 3 Yrotation Zrotation Xrotation
				JOINT lShldr
				{
					OFFSET 3.198488 0.000000 0.000000 
					CHANNELS 3 Zrotation Yrotation Xrotation
					JOINT lForeArm
					{
						OFFSET 10.139888 0.000000 0.000000 
						CHANNELS 3 Yrotation Zrotation Xrotation
						JOINT lHand
						{
							OFFSET 8.370511 0.000000 0.000000 
							CHANNELS 3 Zrotation Yrotation Xrotation
							End Site
							{
								OFFSET 4.083176 0.000000 0.000000 
							}
						}
					}
				}
			}
			JOINT rCollar
			{
				OFFSET -3.470700 6.669187 -0.816635 
				CHANNELS 3 Yrotation Zrotation Xrotation
				JOINT rShldr
				{
					OFFSET -3.198488 0.000000 0.000000 
					CHANNELS 3 Zrotation Yrotation Xrotation
					JOINT rForeArm
					{
						OFFSET -10.139888 0.000000 0.000000 
						CHANNELS 3 Yrotation Zrotation Xrotation
						JOINT rHand
						{
							OFFSET -8.370511 0.000000 0.000000 
							CHANNELS 3 Zrotation Yrotation Xrotation
							End Site
							{
								OFFSET -4.083176 0.000000 0.000000 
							}
						}
					}
				}
			}
		}
	}
	JOINT lThigh
	{
		OFFSET 5.308129 -1.633274 1.361059 
		CHANNELS 3 Xrotation Zrotation Yrotation
		JOINT lShin
		{
			OFFSET -2.041588 -20.007561 0.000000 
			CHANNELS 3 Xrotation Zrotation Yrotation
			JOINT lFoot
			{
				OFFSET 0.000000 -19.190928 -1.224953 
				CHANNELS 3 Xrotation Yrotation Zrotation
				End Site
				{
					OFFSET 0.000000 -2.449906 4.627600 
				}
			}
		}
	}
	JOINT rThigh
	{
		OFFSET -5.308129 -1.633274 1.361059 
		CHANNELS 3 Xrotation Zrotation Yrotation
		JOINT rShin
		{
			OFFSET 2.041588 -20.007561 0.000000 
			CHANNELS 3 Xrotation Zrotation Yrotation
			JOINT rFoot
			{
				OFFSET 0.000000 -19.190928 -1.224953 
				CHANNELS 3 Xrotation Yrotation Zrotation
				End Site
				{
					OFFSET 0.000000 -2.449906 4.627600 
				}
			}
		}
	}
}
MOTION
Frames: 13
Frame Time: 0.033333
0.385847 51.856819 -0.083214 -5.644531 3.847656 -132.743484 16.454100 -0.520156 0.630348 -12.736106 -2.263036 -3.797401 51.562500 8.076172 2.618559 -60.751949 -7.109375 4.490978 8.104895 -25.000000 10.989501 -41.891083 22.177359 -47.837872 -62.828712 -0.909287 -2.577789 -3.279356 33.769749 -7.951486 -9.723414 25.000000 17.307747 31.910938 -12.144934 -13.776425 74.799591 0.458801 -2.616065 -4.252973 -72.001030 6.247762 -2.789014 -0.341892 5.278879 17.150043 -6.046356 -2.174790 -12.161353 4.587770 3.650629 -7.635080 -12.269960 -14.152884 29.304207 4.901845 2.727562 -6.560626 -8.705974 19.490982 
0.910084 51.841000 -0.049479 -5.283203 2.968750 -132.997543 16.980700 -0.853303 0.514291 -12.739100 -2.087280 -3.250516 51.562500 8.076172 2.618559 -62.060547 -7.666016 4.266275 7.496038 -25.000000 10.609904 -41.619255 22.525229 -48.487709 -62.653297 -0.886915 -2.569644 -2.900428 33.500671 -7.849154 -9.784737 25.000000 17.391243 32.028076 -11.610623 -14.093910 74.451393 0.267051 -2.676644 -4.017822 -72.204277 5.370924 -2.550418 -0.371753 5.632603 17.851480 -6.036187 -2.071889 -12.491009 4.209413 3.541233 -7.645411 -12.428039 -15.370196 30.543840 4.843277 3.003365 -6.397303 -9.510814 18.636816 
1.542081 51.833096 0.121958 -4.931641 1.923828 -133.056641 17.692734 -1.184025 0.388802 -12.744918 -1.745532 -2.849783 51.562500 8.076172 2.618559 -63.378902 -8.212891 4.031808 7.074848 -25.000000 10.451860 -41.707798 22.809063 -49.191223 -62.816574 -1.055594 -2.480209 -2.756577 33.498173 -8.024218 -10.033946 25.000000 17.669962 32.071613 -11.419900 -14.552905 74.448097 0.452569 -2.793843 -5.501733 -72.744438 7.029536 -2.343977 -0.360892 5.794591 18.926937 -6.015752 -2.198274 -12.945156 4.269826 3.268054 -7.607024 -12.712957 -16.237106 31.067984 4.813580 2.875697 -6.838377 -10.154696 17.761496 
2.206530 51.801464 0.309218 -4.580078 1.044936 -133.506073 18.394876 -1.512326 0.253885 -12.572201 -1.566772 -2.314032 51.562500 8.076172 2.618559 -64.687500 -8.759767 4.012186 6.628295 -25.000000 10.248881 -41.723160 22.777975 -49.705460 -62.652992 -0.906443 -2.579407 -2.159410 33.494114 -8.331126 -10.497577 25.000000 17.774706 32.146141 -11.079189 -14.598587 74.636383 0.299631 -3.027149 -5.073120 -72.448318 6.791738 -2.116919 -0.371167 5.973696 19.976110 -5.960277 -2.295831 -13.070148 4.514652 3.215536 -7.567078 -12.972769 -17.113483 31.768309 4.774247 3.119410 -7.131512 -10.411953 17.023785 
2.797914 51.690754 0.388901 -4.228463 0.000000 -133.778946 19.271240 -1.658530 0.155831 -12.396496 -1.563732 -2.139606 51.562500 8.076172 2.618559 -66.347656 -9.072265 4.228516 5.983676 -25.000000 9.822986 -41.481918 22.412739 -50.347858 -62.652992 -0.906443 -2.579407 -2.112104 33.366821 -8.474253 -11.082640 25.000000 18.215834 32.395779 -10.742429 -14.481086 74.623672 0.465447 -2.958856 -5.086013 -72.341026 7.069330 -2.124415 -0.624960 6.491048 21.378565 -5.665999 -2.579843 -13.299096 4.290103 2.575571 -7.782574 -13.151330 -18.133097 32.827988 4.716154 3.038206 -7.294419 -10.238213 16.321878 
3.428253 51.595863 0.558804 -3.876953 -0.878906 -134.062500 20.334736 -1.867326 0.222495 -12.041956 -1.733305 -1.995813 51.562500 8.076172 2.618559 -68.349609 -9.326172 4.500371 5.511940 -25.000000 9.537307 -41.196182 21.342342 -52.202915 -63.168022 -1.061295 -2.467231 -1.896653 33.191936 -8.849332 -11.635384 25.000000 18.622465 32.196697 -9.860628 -14.285580 74.623848 0.455683 -2.958855 -4.817932 -72.362251 6.855565 -2.327471 -0.654558 6.504618 22.784132 -5.838993 -2.621217 -12.921227 4.327604 2.500644 -7.976979 -13.663792 -19.153038 34.055260 4.647455 2.968220 -7.811742 -10.219399 15.642506 
4.098204 51.477245 0.872293 -3.525390 -1.757813 -134.189743 21.572012 -1.903484 0.323889 -11.684087 -2.078491 -1.881613 51.562500 8.076172 2.618559 -70.898438 -9.482423 4.558938 5.241282 -25.000000 9.503688 -40.759388 19.582224 -54.751526 -64.222351 -1.078515 -2.448039 -1.684402 32.185085 -10.156949 -11.838278 25.000000 18.663322 31.691221 -8.623112 -14.094412 74.457863 0.452742 -2.959803 -5.891814 -72.940277 7.526607 -2.724596 -0.702519 7.373649 24.557096 -5.530827 -2.887934 -12.808015 3.774217 2.014221 -8.202929 -13.845490 -19.983395 35.126530 4.579846 3.067967 -8.410241 -10.488099 14.488216 
4.781422 51.358620 1.335494 -3.349610 -2.636719 -134.150391 22.985968 -2.155756 0.519837 -11.322861 -2.589523 -1.962781 51.562500 8.076172 2.618559 -73.437500 -9.599609 4.617512 5.073784 -25.000000 9.332834 -40.727451 17.609726 -57.819839 -65.477272 -0.776923 -2.769344 -1.007133 31.267134 -11.660342 -11.914892 25.000000 18.769794 31.332739 -7.362657 -13.904362 74.109833 0.251240 -2.854404 -5.865117 -73.273300 6.663311 -3.338813 -0.722538 7.750777 25.957756 -5.471698 -3.050151 -12.646765 3.610146 2.109097 -8.807765 -14.399374 -20.932697 36.355507 4.501650 3.167874 -8.222079 -10.831114 14.005042 
5.469640 51.239998 1.929161 -2.998047 -3.164091 -133.789856 24.389046 -2.182494 0.623298 -10.785231 -3.097062 -2.074552 51.562500 8.076172 2.618559 -75.957031 -9.531250 4.490570 4.803691 -25.000000 9.300007 -40.326931 15.436718 -61.086868 -66.870895 -0.946706 -2.650419 -0.898898 30.174885 -13.545564 -11.914892 25.000000 18.769794 30.733351 -6.489735 -13.529447 74.106552 0.436758 -2.961836 -7.144704 -73.486382 7.602910 -3.978119 -0.712980 7.230791 27.031197 -5.678233 -3.045227 -12.272272 3.482513 2.181083 -9.520703 -15.121571 -21.709154 37.585960 4.423535 3.460586 -7.546212 -11.765209 13.225609 
5.847478 51.042301 2.081766 -2.822266 -3.691406 -133.242813 25.626032 -2.372135 0.654453 -10.246809 -3.614047 -2.186303 51.562500 8.076172 2.618559 -78.320313 -9.619140 4.558915 4.803691 -25.000000 9.300007 -39.164177 13.348206 -63.239426 -68.477463 -0.651566 -2.940841 0.059386 28.877661 -14.739033 -11.489655 25.000000 18.489334 30.127600 -6.851366 -12.236094 74.460976 0.276988 -3.018386 -6.861035 -73.125893 7.314813 -4.227460 -0.663743 6.712686 27.739279 -5.658188 -2.941056 -12.571246 3.102613 2.042643 -11.512537 -16.215570 -22.232521 39.168198 4.316153 3.587703 -6.312394 -11.729232 11.985503 
6.039768 50.931599 2.087912 -2.822266 -3.867188 -132.354172 26.511621 -2.350523 0.610102 -9.887722 -3.948766 -2.267520 51.562500 8.076172 2.618559 -80.126953 -9.619141 4.666337 4.793112 -25.000000 9.280124 -37.128609 11.617774 -64.116531 -70.404160 -0.489256 -2.614382 1.299258 27.434383 -15.695363 -10.714923 25.000000 18.011213 29.561316 -8.105042 -10.579138 74.462357 0.198875 -2.793774 -6.097035 -72.189507 6.412680 -4.206502 -0.722704 6.024777 27.560266 -5.541863 -3.228895 -13.227468 2.843559 1.833529 -13.807419 -17.534794 -22.528101 41.448753 4.159668 3.773550 -3.341551 -11.904442 11.976823 
5.916584 50.852501 1.925882 -2.822266 -3.867188 -131.123703 27.034601 -2.227419 0.250076 -9.707978 -4.120954 -2.483567 51.562500 8.076172 2.618559 -81.445313 -9.843751 4.970703 4.480238 -25.000000 9.135302 -34.738026 10.646160 -63.261539 -72.877380 -0.356504 -2.617628 3.196019 25.434271 -14.844035 -9.939653 25.000000 17.536230 28.517584 -9.691537 -8.806540 74.802879 0.273283 -2.498866 -3.691666 -71.777664 4.164522 -3.730806 -0.878513 3.910242 26.343151 -5.725677 -2.963750 -14.647662 4.054472 1.966953 -15.955290 -18.422243 -23.114199 43.564255 4.013458 3.770127 0.332397 -11.824898 11.670335 
5.736017 50.939499 1.602172 -3.173828 -3.339844 -128.847656 27.019651 -2.202721 -0.315673 -9.707978 -4.120954 -2.483567 51.562500 8.076172 2.618559 -82.031250 -10.039063 5.760016 4.462015 -25.000000 9.085684 -31.759621 10.112489 -61.684376 -75.865204 -0.399630 -2.522287 5.113564 22.882418 -13.474885 -9.766075 25.000000 17.530548 28.179430 -11.138302 -7.358974 74.965912 0.442220 -2.429587 -3.337055 -70.985245 4.232303 -3.479380 -0.682389 1.617352 24.564034 -5.803593 -2.777676 -15.128448 4.191207 2.117843 -18.024757 -19.094332 -23.573019 44.618347 3.935287 3.847360 4.802047 -12.360143 12.858060 
